<?xml version="1.0" encoding="UTF-8" standalone="no"?>
<!DOCTYPE svg PUBLIC "-//W3C//DTD SVG 1.1//EN" "http://www.w3.org/Graphics/SVG/1.1/DTD/svg11.dtd">
<svg width="100%" height="100%" viewBox="0 0 120 32" version="1.1" xmlns="http://www.w3.org/2000/svg" xmlns:xlink="http://www.w3.org/1999/xlink" xml:space="preserve" xmlns:serif="http://www.serif.com/" style="fill-rule:evenodd;clip-rule:evenodd;">
    <path d="M119.5,4C119.5,2.068 117.932,0.5 116,0.5L4,0.5C2.068,0.5 0.5,2.068 0.5,4L0.5,28C0.5,29.932 2.068,31.5 4,31.5L116,31.5C117.932,31.5 119.5,29.932 119.5,28L119.5,4Z" style="fill:rgb(0,178,148);"/>
    <path d="M119.5,4C119.5,2.068 117.932,0.5 116,0.5L4,0.5C2.068,0.5 0.5,2.068 0.5,4L0.5,28C0.5,29.932 2.068,31.5 4,31.5L116,31.5C117.932,31.5 119.5,29.932 119.5,28L119.5,4Z" style="fill:none;stroke:url(#_Linear1);stroke-width:1px;"/>
    <g transform="matrix(1.05454,0,0,1.03907,5.67539,-0.997617)">
        <g transform="matrix(13.4644,0,0,13.4644,21.2169,21.1641)">
            <path d="M0.092,-0L0.092,-0.7L0.285,-0.7C0.532,-0.7 0.655,-0.586 0.655,-0.359C0.655,-0.251 0.621,-0.164 0.552,-0.098C0.484,-0.033 0.392,-0 0.277,-0L0.092,-0ZM0.174,-0.626L0.174,-0.074L0.278,-0.074C0.37,-0.074 0.442,-0.099 0.493,-0.148C0.544,-0.197 0.569,-0.267 0.569,-0.357C0.569,-0.536 0.474,-0.626 0.283,-0.626L0.174,-0.626Z" style="fill-rule:nonzero;"/>
        </g>
        <g transform="matrix(13.4644,0,0,13.4644,30.6577,21.1641)">
            <path d="M0.29,0.012C0.216,0.012 0.157,-0.012 0.113,-0.058C0.069,-0.105 0.047,-0.167 0.047,-0.244C0.047,-0.328 0.07,-0.394 0.116,-0.441C0.162,-0.488 0.224,-0.512 0.302,-0.512C0.376,-0.512 0.434,-0.489 0.476,-0.443C0.518,-0.397 0.539,-0.333 0.539,-0.252C0.539,-0.172 0.517,-0.108 0.471,-0.06C0.426,-0.012 0.366,0.012 0.29,0.012ZM0.296,-0.444C0.244,-0.444 0.204,-0.427 0.174,-0.392C0.144,-0.357 0.129,-0.309 0.129,-0.247C0.129,-0.188 0.144,-0.141 0.174,-0.107C0.205,-0.073 0.245,-0.056 0.296,-0.056C0.348,-0.056 0.387,-0.072 0.415,-0.106C0.443,-0.139 0.457,-0.187 0.457,-0.249C0.457,-0.312 0.443,-0.36 0.415,-0.394C0.387,-0.427 0.348,-0.444 0.296,-0.444Z" style="fill-rule:nonzero;"/>
        </g>
        <g transform="matrix(13.4644,0,0,13.4644,38.547,21.1641)">
            <path d="M0.711,-0.5L0.561,-0L0.478,-0L0.375,-0.358C0.371,-0.372 0.368,-0.387 0.367,-0.404L0.365,-0.404C0.364,-0.393 0.361,-0.377 0.355,-0.359L0.243,-0L0.163,-0L0.012,-0.5L0.096,-0.5L0.199,-0.124C0.202,-0.113 0.205,-0.098 0.206,-0.079L0.21,-0.079C0.211,-0.093 0.214,-0.109 0.219,-0.125L0.334,-0.5L0.407,-0.5L0.511,-0.123C0.514,-0.111 0.516,-0.096 0.518,-0.078L0.522,-0.078C0.523,-0.091 0.525,-0.106 0.53,-0.123L0.632,-0.5L0.711,-0.5Z" style="fill-rule:nonzero;"/>
        </g>
        <g transform="matrix(13.4644,0,0,13.4644,48.2771,21.1641)">
            <path d="M0.496,-0L0.416,-0L0.416,-0.285C0.416,-0.391 0.377,-0.444 0.3,-0.444C0.26,-0.444 0.227,-0.429 0.2,-0.399C0.174,-0.369 0.161,-0.331 0.161,-0.285L0.161,-0L0.081,-0L0.081,-0.5L0.161,-0.5L0.161,-0.417L0.163,-0.417C0.201,-0.48 0.256,-0.512 0.327,-0.512C0.382,-0.512 0.424,-0.494 0.453,-0.459C0.482,-0.423 0.496,-0.372 0.496,-0.306L0.496,-0Z" style="fill-rule:nonzero;"/>
        </g>
        <g transform="matrix(13.4644,0,0,13.4644,55.8969,21.1641)">
            <rect x="0.081" y="-0.74" width="0.08" height="0.74" style="fill-rule:nonzero;"/>
        </g>
        <g transform="matrix(13.4644,0,0,13.4644,59.1578,21.1641)">
            <path d="M0.29,0.012C0.216,0.012 0.157,-0.012 0.113,-0.058C0.069,-0.105 0.047,-0.167 0.047,-0.244C0.047,-0.328 0.07,-0.394 0.116,-0.441C0.162,-0.488 0.224,-0.512 0.302,-0.512C0.376,-0.512 0.434,-0.489 0.476,-0.443C0.518,-0.397 0.539,-0.333 0.539,-0.252C0.539,-0.172 0.517,-0.108 0.471,-0.06C0.426,-0.012 0.366,0.012 0.29,0.012ZM0.296,-0.444C0.244,-0.444 0.204,-0.427 0.174,-0.392C0.144,-0.357 0.129,-0.309 0.129,-0.247C0.129,-0.188 0.144,-0.141 0.174,-0.107C0.205,-0.073 0.245,-0.056 0.296,-0.056C0.348,-0.056 0.387,-0.072 0.415,-0.106C0.443,-0.139 0.457,-0.187 0.457,-0.249C0.457,-0.312 0.443,-0.36 0.415,-0.394C0.387,-0.427 0.348,-0.444 0.296,-0.444Z" style="fill-rule:nonzero;"/>
        </g>
        <g transform="matrix(13.4644,0,0,13.4644,67.0471,21.1641)">
            <path d="M0.439,-0L0.359,-0L0.359,-0.078L0.357,-0.078C0.322,-0.018 0.271,0.012 0.203,0.012C0.153,0.012 0.114,-0.001 0.086,-0.028C0.058,-0.054 0.044,-0.089 0.044,-0.133C0.044,-0.226 0.099,-0.281 0.209,-0.296L0.359,-0.317C0.359,-0.402 0.325,-0.444 0.256,-0.444C0.196,-0.444 0.141,-0.424 0.093,-0.383L0.093,-0.465C0.142,-0.496 0.199,-0.512 0.263,-0.512C0.38,-0.512 0.439,-0.45 0.439,-0.325L0.439,-0ZM0.359,-0.253L0.238,-0.236C0.201,-0.231 0.173,-0.222 0.154,-0.209C0.135,-0.196 0.126,-0.172 0.126,-0.139C0.126,-0.114 0.135,-0.094 0.152,-0.079C0.17,-0.063 0.193,-0.056 0.222,-0.056C0.261,-0.056 0.294,-0.07 0.32,-0.097C0.346,-0.125 0.359,-0.16 0.359,-0.203L0.359,-0.253Z" style="fill-rule:nonzero;"/>
        </g>
        <g transform="matrix(13.4644,0,0,13.4644,73.8976,21.1641)">
            <path d="M0.508,-0L0.428,-0L0.428,-0.085L0.426,-0.085C0.389,-0.021 0.331,0.012 0.254,0.012C0.191,0.012 0.141,-0.011 0.103,-0.055C0.066,-0.1 0.047,-0.161 0.047,-0.238C0.047,-0.321 0.068,-0.387 0.109,-0.437C0.151,-0.487 0.207,-0.512 0.276,-0.512C0.345,-0.512 0.395,-0.485 0.426,-0.431L0.428,-0.431L0.428,-0.74L0.508,-0.74L0.508,-0ZM0.428,-0.226L0.428,-0.3C0.428,-0.34 0.414,-0.374 0.388,-0.402C0.361,-0.43 0.327,-0.444 0.286,-0.444C0.237,-0.444 0.199,-0.426 0.171,-0.391C0.143,-0.355 0.129,-0.305 0.129,-0.242C0.129,-0.185 0.142,-0.139 0.169,-0.106C0.196,-0.072 0.232,-0.056 0.277,-0.056C0.322,-0.056 0.358,-0.072 0.386,-0.104C0.414,-0.136 0.428,-0.177 0.428,-0.226Z" style="fill-rule:nonzero;"/>
        </g>
    </g>
    <defs>
        <linearGradient id="_Linear1" x1="0" y1="0" x2="1" y2="0" gradientUnits="userSpaceOnUse" gradientTransform="matrix(1.95943e-15,32,-32,1.95943e-15,60,0)"><stop offset="0" style="stop-color:white;stop-opacity:0.08"/><stop offset="0.91" style="stop-color:white;stop-opacity:0.08"/><stop offset="1" style="stop-color:black;stop-opacity:0.4"/></linearGradient>
    </defs>
</svg>
